{"title":"AVATAR.2009.1080p.X264.MP3.[11.50GB]#RESEED1#-Agent666","uid":11000120,"size":12367495627,"categoryP":"video","categoryS":"hd___movies","magnet":"?xt=urn:btih:bf025615aed1bda9081b0fd4daa2d5aed01fe920&amp;dn=AVATAR.2009.1080p.X264.MP3.%5B11.50GB%5D%23RESEED1%23-Agent666&amp;tr=udp%3A%2F%2Ftracker.openbittorrent.com%3A80&amp;tr=udp%3A%2F%2Fopen.demonii.com%3A1337&amp;tr=udp%3A%2F%2Ftracker.coppersurfer.tk%3A6969&amp;tr=udp%3A%2F%2Fexodus.desync.com%3A6969","seeders":1,"leechers":0,"uploader":"Agent666","files":-1,"time":1410126495,"description":"AVATAR.2009.1080p.X264.MP3.[11.50GB]-Agent666.mkv\n\nâ– â– â– â– â– â– â– â– â– â– â– â– â– â– â– â– â– â– â– â– â– â– â– â– â– â– â– â– â– â– â– â–  I M D B :\n &lt;a href=&quot;\nhttp://www.imdb.com/title/tt0499549/&quot; rel=&quot;nofollow&quot; target=&quot;_NEW&quot;&gt;\nhttp://www.imdb.com/title/tt0499549/&lt;/a&gt;\n\nâ–  AVATAR (2009)\n   162 min - Action | Adventure | Fantasy\n   Rating:  7.9\n   Release date: 18 December 2009 (USA)\n\nâ–  Director:\nJames Cameron\n\nâ–  Cast:\nSam Worthington, Zoe Saldana, Sigourney Weaver, Michelle Rodriguez, Stephen Lang and others.\n\nâ–  Story Line:\nA paraplegic Marine dispatched to the moon Pandora on a unique mission becomes torn between following his orders and protecting the world he feels is his home.\n\nâ– â– â– â– â– â– â– â– â– â– â– â– â– â– â– â– â– â– â– â– â– â– â– â– â– â– â– â– â– â– â– â–  V I D E O :\n\nFormat                                   : Matroska\nFormat version                           : Version 2\nFile size                                : 11.5 GiB\nDuration                                 : 2h 41mn\nOverall bit rate mode                    : Variable\nOverall bit rate                         : 10.2 Mbps\nEncoded date                             : UTC 2014-09-05 19:33:39\nWriting application                      : Lavf54.59.106\nWriting library                          : Lavf54.59.106\n\nâ–  VIDEO:\n\nID                                       : 1\nFormat                                   : AVC\nFormat/Info                              : Advanced Video Codec\nFormat profile                           : &lt;a class=&quot;__cf_email__&quot; href=&quot;/cdn-cgi/l/email-protection&quot; data-cfemail=&quot;7a381b091f1613141f3a364e544a&quot;&gt;[email&amp;#160;protected]&lt;/a&gt;&lt;script cf-hash='f9e31' type=&quot;text/javascript&quot;&gt;\n/* &lt;![CDATA[ */!function(){try{var t=&quot;currentScript&quot;in document?document.currentScript:function(){for(var t=document.getElementsByTagName(&quot;script&quot;),e=t.length;e--;)if(t[e].getAttribute(&quot;cf-hash&quot;))return t[e]}();if(t&amp;&amp;t.previousSibling){var e,r,n,i,c=t.previousSibling,a=c.getAttribute(&quot;data-cfemail&quot;);if(a){for(e=&quot;&quot;,r=parseInt(a.substr(0,2),16),n=2;a.length-n;n+=2)i=parseInt(a.substr(n,2),16)^r,e+=String.fromCharCode(i);e=document.createTextNode(e),c.parentNode.replaceChild(e,c)}}}catch(u){}}();/* ]]&gt; */&lt;/script&gt;\nFormat settings, CABAC                   : No\nFormat settings, ReFrames                : 1 frame\nFormat settings, GOP                     : M=1, N=12\nCodec ID                                 : V_MPEG4/ISO/AVC\nDuration                                 : 2h 41mn\nBit rate mode                            : Variable\nBit rate                                 : 9 803 Kbps\nMaximum bit rate                         : 20.0 Mbps\nWidth                                    : 1 920 pixels\nHeight                                   : 1 080 pixels\nDisplay aspect ratio                     : 16:9\nFrame rate mode                          : Constant\nFrame rate                               : 23.976 fps\nColor space                              : YUV\nChroma subsampling                       : 4:2:0\nBit depth                                : 8 bits\nScan type                                : Progressive\nBits/(Pixel*Frame)                       : 0.197\nStream size                              : 11.1 GiB (96%)\nDefault                                  : Yes\nForced                                   : No\n\nâ–  AUDIO:\n\nID                                       : 2\nFormat                                   : MPEG Audio\nFormat version                           : Version 1\nFormat profile                           : Layer 3\nMode                                     : Joint stereo\nMode extension                           : MS Stereo\nCodec ID                                 : A_MPEG/L3\nCodec ID/Hint                            : MP3\nDuration                                 : 2h 41mn\nBit rate mode                            : Constant\nBit rate                                 : 192 Kbps\nChannel(s)                               : 2 channels\nSampling rate                            : 44.1 KHz\nCompression mode                         : Lossy\nDelay relative to video                  : -25ms\nStream size                              : 222 MiB (2%)\nWriting library                          : LAME3.98.4\nDefault                                  : Yes\nForced                                   : No\n\nâ– â– â– â– â– â– â– â– â– â– â– â– â– â– â– â– â– â– â– â– â– â– â– â– â– â– â– â– â– â– â– â– â– â– â– â– â– â– â– â– â– â– â– â– â– â– â– â– â– â– â– â– â– â– â– â– â– â– â– â– â– â– â– â– â– â– â– â– â– â– â– â– \n\nâ–  COLLAGE: &lt;a href=&quot;\nhttp://i.imgur.com/y9LBds6.jpg&quot; rel=&quot;nofollow&quot; target=&quot;_NEW&quot;&gt;\nhttp://i.imgur.com/y9LBds6.jpg&lt;/a&gt;\n\nâ–  SCREENS: &lt;a href=&quot;\nhttp://i.imgur.com/aTaQzPQ.jpg&quot; rel=&quot;nofollow&quot; target=&quot;_NEW&quot;&gt;\nhttp://i.imgur.com/aTaQzPQ.jpg&lt;/a&gt;\n &lt;a href=&quot;\nhttp://i.imgur.com/mFd5sWk.jpg&quot; rel=&quot;nofollow&quot; target=&quot;_NEW&quot;&gt;\nhttp://i.imgur.com/mFd5sWk.jpg&lt;/a&gt;\n &lt;a href=&quot;\nhttp://i.imgur.com/3nFzxnq.jpg&quot; rel=&quot;nofollow&quot; target=&quot;_NEW&quot;&gt;\nhttp://i.imgur.com/3nFzxnq.jpg&lt;/a&gt;\n &lt;a href=&quot;\nhttp://i.imgur.com/5gjCqxm.jpg&quot; rel=&quot;nofollow&quot; target=&quot;_NEW&quot;&gt;\nhttp://i.imgur.com/5gjCqxm.jpg&lt;/a&gt;\n &lt;a href=&quot;\nhttp://i.imgur.com/TLRgqUQ.jpg&quot; rel=&quot;nofollow&quot; target=&quot;_NEW&quot;&gt;\nhttp://i.imgur.com/TLRgqUQ.jpg&lt;/a&gt;\n &lt;a href=&quot;\nhttp://i.imgur.com/8Hhgtgz.jpg&quot; rel=&quot;nofollow&quot; target=&quot;_NEW&quot;&gt;\nhttp://i.imgur.com/8Hhgtgz.jpg&lt;/a&gt;\n &lt;a href=&quot;\nhttp://i.imgur.com/DLbrqpW.jpg&quot; rel=&quot;nofollow&quot; target=&quot;_NEW&quot;&gt;\nhttp://i.imgur.com/DLbrqpW.jpg&lt;/a&gt;\n &lt;a href=&quot;\nhttp://i.imgur.com/rYyTYd2.jpg&quot; rel=&quot;nofollow&quot; target=&quot;_NEW&quot;&gt;\nhttp://i.imgur.com/rYyTYd2.jpg&lt;/a&gt;\n &lt;a href=&quot;\nhttp://i.imgur.com/f0wFcdV.jpg&quot; rel=&quot;nofollow&quot; target=&quot;_NEW&quot;&gt;\nhttp://i.imgur.com/f0wFcdV.jpg&lt;/a&gt;\n &lt;a href=&quot;\nhttp://i.imgur.com/cIKIEL0.jpg&quot; rel=&quot;nofollow&quot; target=&quot;_NEW&quot;&gt;\nhttp://i.imgur.com/cIKIEL0.jpg&lt;/a&gt;\n\nâ–  THUMBNAILS: &lt;a href=&quot;\nhttp://i.imgur.com/1Ru845J.jpg&quot; rel=&quot;nofollow&quot; target=&quot;_NEW&quot;&gt;\nhttp://i.imgur.com/1Ru845J.jpg&lt;/a&gt;\n\nâ–  IMDB IMAGE: &lt;a href=&quot;\nhttp://i.imgur.com/Jsddy2u.jpg&quot; rel=&quot;nofollow&quot; target=&quot;_NEW&quot;&gt;\nhttp://i.imgur.com/Jsddy2u.jpg&lt;/a&gt;\n\nâ–  MOVIE POSTER: &lt;a href=&quot;\nhttp://i.imgur.com/Ch7LiHn.jpg&quot; rel=&quot;nofollow&quot; target=&quot;_NEW&quot;&gt;\nhttp://i.imgur.com/Ch7LiHn.jpg&lt;/a&gt;\n\nâ–  WIKIPEDIA: &lt;a href=&quot;\nhttp://en.wikipedia.org/wiki/Avatar_%282009_film%29&quot; rel=&quot;nofollow&quot; target=&quot;_NEW&quot;&gt;\nhttp://en.wikipedia.org/wiki/Avatar_%282009_film%29&lt;/a&gt;\n\nâ–  IMDB: &lt;a href=&quot;\nhttp://www.imdb.com/title/tt0499549/&quot; rel=&quot;nofollow&quot; target=&quot;_NEW&quot;&gt;\nhttp://www.imdb.com/title/tt0499549/&lt;/a&gt;\n\nPLEASE CONTINUE TO SEED FOR AS LONG AS YOU CAN SO, THAT, OTHERS MAY ENJOY THIS TOO!\nThank you!\n","torrent":{"xt":"urn:btih:bf025615aed1bda9081b0fd4daa2d5aed01fe920","amp;dn":"AVATAR.2009.1080p.X264.MP3.%5B11.50GB%5D%23RESEED1%23-Agent666","amp;tr":["udp%3A%2F%2Ftracker.openbittorrent.com%3A80","udp%3A%2F%2Fopen.demonii.com%3A1337","udp%3A%2F%2Ftracker.coppersurfer.tk%3A6969","udp%3A%2F%2Fexodus.desync.com%3A6969"],"infoHash":"bf025615aed1bda9081b0fd4daa2d5aed01fe920","infoHashBuffer":{"type":"Buffer","data":[191,2,86,21,174,209,189,169,8,27,15,212,218,162,213,174,208,31,233,32]},"announce":[],"urlList":[]}}